<?xml version="1.0" encoding="UTF-8"?>
<svg width="126px" height="22px" viewBox="0 0 126 22" version="1.1" xmlns="http://www.w3.org/2000/svg" xmlns:xlink="http://www.w3.org/1999/xlink">
    <!-- Generator: Sketch 41.2 (35397) - http://www.bohemiancoding.com/sketch -->
    <title>logo</title>
    <desc>Created with Sketch.</desc>
    <defs>
        <polygon id="path-1" points="1 16 4 16 4 21 1 21"></polygon>
    </defs>
    <g id="resources" stroke="none" stroke-width="1" fill="none" fill-rule="evenodd">
        <g id="logo">
            <path d="M21,10.890411 C21,16.5616438 24.9889764,21 30.6645669,21 C35.4031496,21 38,17.9315068 38,17.9315068 L36.5811024,15.9863014 C36.5811024,15.9863014 34.3055118,18.5068493 30.7448819,18.5068493 C26.5417323,18.5068493 23.7307087,15 23.7307087,10.8630137 C23.7307087,6.75342466 26.488189,3.46575342 30.7181102,3.46575342 C33.984252,3.46575342 36.1795276,5.57534247 36.1795276,5.57534247 L37.4913386,3.54794521 C37.4913386,3.54794521 35.1622047,1 30.6110236,1 C25.1228346,1 21,5.2739726 21,10.890411 Z M38,10.8630137 C38,16.5616438 42.3862069,21 48.0137931,21 C53.6413793,21 58,16.5616438 58,10.8630137 C58,5.30136986 53.6413793,1 48.0137931,1 C42.3862069,1 38,5.30136986 38,10.8630137 Z M40.75,10.8729508 C40.75,6.52504554 44.006238,3.25 48.0139155,3.25 C52.0215931,3.25 55.25,6.52504554 55.25,10.8729508 C55.25,15.3620219 52.0215931,18.75 48.0139155,18.75 C44.006238,18.75 40.75,15.3620219 40.75,10.8729508 Z M60,21 L62.6283186,21 L62.6283186,8.0255 C62.6283186,6.89235185 62.4424779,5.10764815 62.4424779,5.10764815 L62.4955752,5.10764815 C62.4955752,5.10764815 63.3716814,6.92068519 64.0619469,8.0255 L72.4247788,21 L75,21 L75,1 L72.3716814,1 L72.3716814,14.0028333 C72.3716814,15.1076481 72.5575221,16.8923519 72.5575221,16.8923519 L72.5044248,16.8923519 C72.5044248,16.8923519 71.6283186,15.0793148 70.9380531,14.0028333 L62.6017699,1 L60,1 L60,21 Z M78,10.8630137 C78,16.5616438 82.3862069,21 88.0137931,21 C93.6413793,21 98,16.5616438 98,10.8630137 C98,5.30136986 93.6413793,1 88.0137931,1 C82.3862069,1 78,5.30136986 78,10.8630137 Z M80.75,10.8729508 C80.75,6.52504554 84.006238,3.25 88.0139155,3.25 C92.0215931,3.25 95.25,6.52504554 95.25,10.8729508 C95.25,15.3620219 92.0215931,18.75 88.0139155,18.75 C84.006238,18.75 80.75,15.3620219 80.75,10.8729508 Z M100,21 L102.75766,21 L103.704735,8.39375926 C103.788301,7.17562963 103.760446,5.39092593 103.760446,5.39092593 C103.816156,5.39092593 104.428969,7.31727778 104.874652,8.39375926 L108.774373,17.4022593 L111.225627,17.4022593 L115.153203,8.39375926 C115.626741,7.28894444 116.211699,5.44759259 116.211699,5.44759259 C116.267409,5.44759259 116.211699,7.17562963 116.295265,8.39375926 L117.270195,21 L120,21 L118.412256,1 L115.51532,1 L111.002786,11.821537 C110.557103,12.9263519 110.027855,14.5127407 110.027855,14.5127407 C109.972145,14.5127407 109.442897,12.9263519 108.997214,11.821537 L104.48468,1 L101.587744,1 L100,21 Z M122,21 L125,21 L125,1 L122,1 L122,21 Z" id="Clip-2" fill="#4C6F8C"></path>
            <polygon id="Clip-5" fill="#4C6F8C" points="16 1 19 1 19 21 16 21"></polygon>
            <polygon id="Mask" fill="#829AAF" points="11 11 14 11 14 21 11 21"></polygon>
            <polygon id="Clip-14" fill="#829AAF" points="6 6 9 6 9 21 6 21"></polygon>
            <mask id="mask-2" fill="white">
                <use xlink:href="#path-1"></use>
            </mask>
            <use id="Clip-11" fill="#829AAF" xlink:href="#path-1"></use>
        </g>
    </g>
</svg>