<?xml version="1.0" encoding="UTF-8"?>
<svg width="157px" height="30px" viewBox="0 0 157 30" version="1.1" xmlns="http://www.w3.org/2000/svg" xmlns:xlink="http://www.w3.org/1999/xlink">
    <title>Group 8</title>
    <g id="Page-1" stroke="none" stroke-width="1" fill="none" fill-rule="evenodd">
        <g id="Group-8">
            <g id="Group-7" fill="#3A79F2">
                <rect id="Rectangle-Copy-20" x="9" y="0" width="6" height="30" rx="3"></rect>
                <rect id="Rectangle-Copy-21" x="27" y="12" width="6" height="9" rx="3"></rect>
                <rect id="Rectangle-Copy-22" x="18" y="12" width="6" height="18" rx="3"></rect>
                <rect id="Rectangle-Copy-23" x="0" y="21" width="6" height="9" rx="3"></rect>
                <circle id="Oval-Copy-13" cx="21" cy="6" r="3"></circle>
            </g>
            <path d="M50.0294802,24.7222222 C50.2173951,24.7222222 50.3724248,24.662037 50.4945694,24.5416667 C50.6167141,24.4212963 50.6777864,24.2685185 50.6777864,24.0833333 L50.6777864,24.0833333 L50.6777864,5.91666667 C50.6777864,5.71296296 50.6214119,5.55555556 50.508663,5.44444444 C50.3959141,5.33333333 50.2361865,5.27777778 50.0294802,5.27777778 L50.0294802,5.27777778 L48.620119,5.27777778 C48.4322041,5.27777778 48.2818723,5.33796296 48.1691234,5.45833333 C48.0563745,5.5787037 48,5.73148148 48,5.91666667 L48,5.91666667 L48,24.0833333 C48,24.2685185 48.0563745,24.4212963 48.1691234,24.5416667 C48.2818723,24.662037 48.4322041,24.7222222 48.620119,24.7222222 L48.620119,24.7222222 L50.0294802,24.7222222 Z M62.6855443,25 C64.3579864,25 65.7767434,24.7083333 66.9418154,24.125 C68.1068873,23.5416667 68.9853892,22.7777778 69.5773209,21.8333333 C70.1692527,20.8888889 70.4934057,19.8796296 70.5497802,18.8055556 C70.5497802,18.6388889 70.4887079,18.5046296 70.3665632,18.4027778 C70.2444186,18.3009259 70.0987846,18.25 69.9296612,18.25 L69.9296612,18.25 L68.5203,18.25 C68.3323851,18.25 68.1820533,18.2962963 68.0693044,18.3888889 C67.9565555,18.4814815 67.8719938,18.6388889 67.8156193,18.8611111 C67.4961641,20.2685185 66.9136281,21.2592593 66.0680114,21.8333333 C65.2223946,22.4074074 64.0949056,22.6944444 62.6855443,22.6944444 C59.4158262,22.6944444 57.715197,20.9074074 57.5836566,17.3333333 C57.5648651,16.7962963 57.5554694,16.0092593 57.5554694,14.9722222 L57.5558173,14.6364883 C57.5576733,13.7677183 57.566953,13.1111111 57.5836566,12.6666667 C57.715197,9.07407407 59.4158262,7.27777778 62.6855443,7.27777778 C64.1136971,7.27777778 65.245884,7.56481481 66.082105,8.13888889 C66.918326,8.71296296 67.4961641,9.71296296 67.8156193,11.1388889 C67.8719938,11.3611111 67.9565555,11.5185185 68.0693044,11.6111111 C68.1820533,11.7037037 68.3323851,11.75 68.5203,11.75 L68.5203,11.75 L69.9296612,11.75 C70.0987846,11.75 70.2444186,11.6990741 70.3665632,11.5972222 C70.4887079,11.4953704 70.5497802,11.3611111 70.5497802,11.1944444 C70.4934057,10.1203704 70.1692527,9.11111111 69.5773209,8.16666667 C68.9853892,7.22222222 68.1068873,6.45833333 66.9418154,5.875 C65.7767434,5.29166667 64.3579864,5 62.6855443,5 C60.186277,5 58.2836393,5.6712963 56.9776312,7.01388889 C55.6716231,8.35648148 54.9716404,10.1944444 54.877683,12.5277778 C54.8588915,13.0462963 54.8494957,13.8796296 54.8494957,15.0277778 C54.8494957,16.1574074 54.8588915,16.9722222 54.877683,17.4722222 C54.9716404,19.8055556 55.6716231,21.6435185 56.9776312,22.9861111 C58.2836393,24.3287037 60.186277,25 62.6855443,25 Z M81.4300491,25 C83.872942,25 85.7567882,24.3657407 87.0815878,23.0972222 C88.4063874,21.8287037 89.1063701,19.9166667 89.1815361,17.3611111 C89.219119,16.25 89.2379105,15.462963 89.2379105,15 L89.2373468,14.8466667 C89.2339643,14.36 89.2153607,13.6333333 89.1815361,12.6666667 C89.1063701,10.1481481 88.382898,8.24074074 87.0111197,6.94444444 C85.6393414,5.64814815 83.7789846,5 81.4300491,5 C79.0811137,5 77.216059,5.64814815 75.8348849,6.94444444 C74.4537109,8.24074074 73.7255409,10.1481481 73.650375,12.6666667 C73.6315835,13.2037037 73.6221877,13.9814815 73.6221877,15 L73.6225357,15.3309328 C73.6243917,16.1905578 73.6336714,16.867284 73.650375,17.3611111 C73.7255409,19.9166667 74.4302215,21.8287037 75.7644169,23.0972222 C77.0986122,24.3657407 78.9871563,25 81.4300491,25 Z M81.4300491,22.6944444 C79.907939,22.6944444 78.6958883,22.2453704 77.7938971,21.3472222 C76.8919059,20.4490741 76.412723,19.0740741 76.3563486,17.2222222 C76.3375571,16.6666667 76.3281614,15.9259259 76.3281614,15 L76.3286018,14.6553819 C76.3306571,13.8735532 76.339906,13.2476852 76.3563486,12.7777778 C76.412723,10.9259259 76.8966037,9.5462963 77.8079907,8.63888889 C78.7193776,7.73148148 79.9267305,7.27777778 81.4300491,7.27777778 C82.9333678,7.27777778 84.1360228,7.73148148 85.038014,8.63888889 C85.9400052,9.5462963 86.4285837,10.9259259 86.5037497,12.7777778 C86.5413326,13.8518519 86.5601241,14.5925926 86.5601241,15 L86.5596582,15.1101928 C86.5565522,15.5081114 86.537916,16.2121212 86.5037497,17.2222222 C86.4285837,19.0740741 85.9400052,20.4490741 85.038014,21.3472222 C84.1360228,22.2453704 82.9333678,22.6944444 81.4300491,22.6944444 Z M95.3263512,24.7222222 C95.514266,24.7222222 95.6692958,24.662037 95.7914404,24.5416667 C95.913585,24.4212963 95.9746574,24.2685185 95.9746574,24.0833333 L95.9746574,24.0833333 L95.9746574,10.1388889 L105.417378,24.3333333 C105.548918,24.5925926 105.774416,24.7222222 106.093871,24.7222222 L106.093871,24.7222222 L107.362296,24.7222222 C107.550211,24.7222222 107.705241,24.6574074 107.827386,24.5277778 C107.94953,24.3981481 108.010603,24.2407407 108.010603,24.0555556 L108.010603,24.0555556 L108.010603,5.94444444 C108.010603,5.74074074 107.94953,5.5787037 107.827386,5.45833333 C107.705241,5.33796296 107.540815,5.27777778 107.334109,5.27777778 L107.334109,5.27777778 L106.065684,5.27777778 C105.877769,5.27777778 105.722739,5.33796296 105.600595,5.45833333 C105.47845,5.5787037 105.417378,5.74074074 105.417378,5.94444444 L105.417378,5.94444444 L105.417378,20 L95.9746574,5.66666667 C95.8806999,5.55555556 95.7867425,5.46296296 95.6927851,5.38888889 C95.5988277,5.31481481 95.4578916,5.27777778 95.2699767,5.27777778 L95.2699767,5.27777778 L94.0297388,5.27777778 C93.841824,5.27777778 93.6914921,5.33796296 93.5787432,5.45833333 C93.4659943,5.5787037 93.4096199,5.74074074 93.4096199,5.94444444 L93.4096199,5.94444444 L93.4096199,24.0833333 C93.4096199,24.2685185 93.4659943,24.4212963 93.5787432,24.5416667 C93.6914921,24.662037 93.841824,24.7222222 94.0297388,24.7222222 L94.0297388,24.7222222 L95.3263512,24.7222222 Z M119.990173,25 C122.433066,25 124.316912,24.3657407 125.641712,23.0972222 C126.966512,21.8287037 127.666494,19.9166667 127.74166,17.3611111 C127.779243,16.25 127.798035,15.462963 127.798035,15 C127.798035,14.5185185 127.779243,13.7407407 127.74166,12.6666667 C127.666494,10.1481481 126.943022,8.24074074 125.571244,6.94444444 C124.199466,5.64814815 122.339109,5 119.990173,5 C117.641238,5 115.776183,5.64814815 114.395009,6.94444444 C113.013835,8.24074074 112.285665,10.1481481 112.210499,12.6666667 C112.191708,13.2037037 112.182312,13.9814815 112.182312,15 L112.18266,15.3309328 C112.184516,16.1905578 112.193796,16.867284 112.210499,17.3611111 C112.285665,19.9166667 112.990346,21.8287037 114.324541,23.0972222 C115.658736,24.3657407 117.54728,25 119.990173,25 Z M119.990173,22.6944444 C118.468063,22.6944444 117.256012,22.2453704 116.354021,21.3472222 C115.45203,20.4490741 114.972847,19.0740741 114.916473,17.2222222 C114.897681,16.6666667 114.888285,15.9259259 114.888285,15 C114.888285,14.0555556 114.897681,13.3148148 114.916473,12.7777778 C114.972847,10.9259259 115.456728,9.5462963 116.368115,8.63888889 C117.279502,7.73148148 118.486855,7.27777778 119.990173,7.27777778 C121.493492,7.27777778 122.696147,7.73148148 123.598138,8.63888889 C124.500129,9.5462963 124.988708,10.9259259 125.063874,12.7777778 C125.101457,13.8518519 125.120248,14.5925926 125.120248,15 C125.120248,15.3703704 125.101457,16.1111111 125.063874,17.2222222 C124.988708,19.0740741 124.500129,20.4490741 123.598138,21.3472222 C122.696147,22.2453704 121.493492,22.6944444 119.990173,22.6944444 Z M133.886475,24.7222222 C134.07439,24.7222222 134.22942,24.662037 134.351565,24.5416667 C134.473709,24.4212963 134.534781,24.2685185 134.534781,24.0833333 L134.534781,24.0833333 L134.534781,10.2777778 L139.32661,19.4722222 C139.533316,19.8611111 139.83398,20.0555556 140.228601,20.0555556 L140.228601,20.0555556 L141.074218,20.0555556 C141.48763,20.0555556 141.788294,19.8611111 141.976209,19.4722222 L141.976209,19.4722222 L146.796224,10.2777778 L146.796224,24.0833333 C146.796224,24.2685185 146.852599,24.4212963 146.965348,24.5416667 C147.078097,24.662037 147.228429,24.7222222 147.416343,24.7222222 L147.416343,24.7222222 L148.712956,24.7222222 C148.900871,24.7222222 149.0559,24.662037 149.178045,24.5416667 C149.30019,24.4212963 149.361262,24.2685185 149.361262,24.0833333 L149.361262,24.0833333 L149.361262,5.94444444 C149.361262,5.74074074 149.304888,5.5787037 149.192139,5.45833333 C149.07939,5.33796296 148.919662,5.27777778 148.712956,5.27777778 L148.712956,5.27777778 L147.388156,5.27777778 C147.087492,5.27777778 146.861995,5.41666667 146.711663,5.69444444 L146.711663,5.69444444 L140.651409,17.0555556 L134.64753,5.69444444 C134.51599,5.41666667 134.281096,5.27777778 133.94285,5.27777778 L133.94285,5.27777778 L132.61805,5.27777778 C132.411344,5.27777778 132.251616,5.33796296 132.138867,5.45833333 C132.026118,5.5787037 131.969744,5.74074074 131.969744,5.94444444 L131.969744,5.94444444 L131.969744,24.0833333 C131.969744,24.2685185 132.030816,24.4212963 132.152961,24.5416667 C132.275106,24.662037 132.430135,24.7222222 132.61805,24.7222222 L132.61805,24.7222222 L133.886475,24.7222222 Z M156.351694,24.7222222 C156.539609,24.7222222 156.694638,24.662037 156.816783,24.5416667 C156.938928,24.4212963 157,24.2685185 157,24.0833333 L157,24.0833333 L157,5.91666667 C157,5.71296296 156.943626,5.55555556 156.830877,5.44444444 C156.718128,5.33333333 156.5584,5.27777778 156.351694,5.27777778 L156.351694,5.27777778 L154.942333,5.27777778 C154.754418,5.27777778 154.604086,5.33796296 154.491337,5.45833333 C154.378588,5.5787037 154.322214,5.73148148 154.322214,5.91666667 L154.322214,5.91666667 L154.322214,24.0833333 C154.322214,24.2685185 154.378588,24.4212963 154.491337,24.5416667 C154.604086,24.662037 154.754418,24.7222222 154.942333,24.7222222 L154.942333,24.7222222 L156.351694,24.7222222 Z" id="ICONOMI" fill="#0E132B"></path>
        </g>
    </g>
</svg>
